<?xml version="1.0" encoding="UTF-8" standalone="no"?>
<svg
   xmlns:dc="http://purl.org/dc/elements/1.1/"
   xmlns:cc="http://creativecommons.org/ns#"
   xmlns:rdf="http://www.w3.org/1999/02/22-rdf-syntax-ns#"
   xmlns:svg="http://www.w3.org/2000/svg"
   xmlns="http://www.w3.org/2000/svg"
   xmlns:sodipodi="http://sodipodi.sourceforge.net/DTD/sodipodi-0.dtd"
   xmlns:inkscape="http://www.inkscape.org/namespaces/inkscape"
   inkscape:version="1.0 (4035a4fb49, 2020-05-01)"
   sodipodi:docname="hook3_vectorized_opt.svg"
   id="svg981"
   viewBox="0 0 2060.9 1330"
   version="1.1"
   height="1330"
   width="2060.9">
  <sodipodi:namedview
     inkscape:current-layer="svg981"
     inkscape:window-maximized="1"
     inkscape:window-y="27"
     inkscape:window-x="0"
     inkscape:cy="69.578027"
     inkscape:cx="1584.4279"
     inkscape:zoom="0.22293233"
     showgrid="false"
     id="namedview983"
     inkscape:window-height="1376"
     inkscape:window-width="2560"
     inkscape:pageshadow="2"
     inkscape:pageopacity="0"
     guidetolerance="10"
     gridtolerance="10"
     objecttolerance="10"
     borderopacity="1"
     bordercolor="#666666"
     pagecolor="#ffffff" />
  <metadata
     id="metadata957">
    <rdf:RDF>
      <cc:Work
         rdf:about="">
        <dc:format>image/svg+xml</dc:format>
        <dc:type
           rdf:resource="http://purl.org/dc/dcmitype/StillImage" />
        <dc:title />
      </cc:Work>
    </rdf:RDF>
  </metadata>
  <defs
     id="defs969">
    <linearGradient
       gradientUnits="userSpaceOnUse"
       y2="643.9"
       y1="-358.43"
       x2="469.3"
       x1="980.6"
       id="linearGradient3006">
      <stop
         id="stop959"
         offset="0"
         stop-color="#ca0000" />
      <stop
         id="stop961"
         offset="1"
         stop-color="#800000" />
    </linearGradient>
    <linearGradient
       gradientUnits="userSpaceOnUse"
       y2="562.78"
       y1="-345.06"
       x2="1943.6"
       x1="2118.8"
       id="linearGradient3014">
      <stop
         id="stop964"
         offset="0"
         stop-color="#4c85c1" />
      <stop
         id="stop966"
         offset="1"
         stop-color="#000019" />
    </linearGradient>
  </defs>
  <g
     id="g979"
     transform="translate(-390.3,655.14)">
    <path
       id="path971"
       fill="#3494bd"
       d="M 511.12,634.06 C 430.563,543.569 406.77,419.06 394.05,302.27 374.524,61.99 430.789,-190 575.62,-385.54 c 110.88,-151.57 288.63,-249.02 475.19,-265.74 222.67,-21.071 441.27,47.495 648,122.55 120.21,46.021 240.05,94.698 353.01,156.67 188.46,115.5 312.75,314.97 372.29,524.43 17.333,67.666 33.298,138.35 24.593,208.41 -54.495,0.51361 -111.31,-0.33479 -163.17,-18.222 -140.94,-92.281 -260.58,-212.4 -382.76,-327.38 -140.28,-136.87 -279.06,-278.06 -442.13,-388.13 -541.71,-5.8623 -755.61,1154.1 -949.53,1007 z" />
    <path
       id="path973"
       fill="#196e9c"
       d="m 636.29,671.48 c -37.795,-6.3534 -86.569,6.3808 -113.41,-27.873 -86.532,-87.152 -112.26,-213.9 -126.22,-331.64 -21.088,-222.77 25.205,-455.19 144.9,-645.65 91.544,-146.13 237.99,-259.18 407.02,-298.69 205.21,-50.93 418.89,-4.481 615.95,58.343 163.7,54.08 324.9,117.72 477.77,197.73 187.43,111.62 313.57,306.11 375.76,512 19.853,71.472 38.027,145.92 30.741,220.61 -30.061,12.443 -72.412,-0.42673 -106.82,-1.3332 -47.283,3.051 -70.48,-32.332 -104.88,-57.195 -198.08,-163.09 -370.64,-353.9 -560.12,-526.36 -156.55,-138.12 -330,-269.28 -535.13,-323.28 -142.82,-38.073 -303.97,-19.252 -425.09,68.885 -111.25,79.234 -189.27,198.67 -234.95,325.95 20.176,-36.156 48.753,-98.621 78.344,-141.16 90.12,-142.06 246.95,-246.82 418.21,-249.86 175.23,-5.01 340.49,74.263 480.57,173.09 -96.796,53.906 -184.68,123.3 -260.59,204.08 -195.73,202.41 -321.47,458.37 -440.73,710.21 -22.949,44.573 -44.598,87.243 -76.129,126.47 -15.243,3.7347 -29.616,5.377 -45.181,5.6814 z" />
    <path
       sodipodi:nodetypes="ccccccccc"
       id="path975"
       fill="url(#linearGradient3006)"
       d="m 513.94,632.226 c -46.15,-55.985 -70.51,-126.72 -84.957,-196.94 21.986,-35.38 5.506,-77.475 4.4609,-117.59 45.05,-556.71 312.51,-1050.8 866.16,-786.57 55.326,27.334 109.79,57.502 159.34,94.34 -170.45,92.858 -306.61,237.68 -417.03,395.29 -127.04,179.07 -216.25,380.46 -313.27,576.35 -22.569,38.438 -23.64002,77.56661 -86.81139,75.71267 C 574.0176,673.18573 536.35141,673.20771 513.94,632.226 Z" />
    <path
       id="path977"
       fill="url(#linearGradient3014)"
       d="m428.86 434.21c24.904-37.174 2.4349-82.732 4.1109-124.85-11.398-203.7 29.455-411.25 124.42-592.32 63.038-113.29 170.77-202.44 294.58-241.71 152.53-48.529 317.82-9.0224 457.35 60.278 47.614 24.139-29.753-12.639-45.357-16.492-141.81-55.932-308.71-66.017-447.15 5.1371-169.4 84.891-277.17 256.55-332.5 432.71-46.177 146.77-60.494 303.72-39.12 456.23 5.5451 4.9775-17.77 36.423-16.321 21.026zm1969.4-75.3c-35.488-4.3538-86.311-2.9404-112.75-20.363-3.3764-30.93-62.113-51.584-84.631-80.931-196.48-170.3-367.96-367.08-564.05-537.74-155.87-132.73-331.1-256.46-535.52-297.1-139.45-28.1-291.12-0.1031-405.31 86.721-107.92 78.921-181.99 195.05-232.65 317.08 69.703-193.56 217.16-366 414.04-436.25 181.92-68.234 383.22-48.009 567.02 1.5289 194.76 52.17 383.25 126.73 564.32 215.04 184.01 93.516 313.27 270.53 385.46 460.32 33.189 93.141 61.407 191.97 53.413 291.79-16.2 2.6852-33.028 0.29083-49.35-0.0982z" />
  </g>
</svg>
